<svg width="164" height="49" viewBox="0 0 164 49" fill="none" xmlns="http://www.w3.org/2000/svg">
<path d="M17.9306 17.1104L13.333 24.9263L17.4709 32.2825L25.7466 31.8227L30.3442 24.0068L25.7466 17.1104H17.9306Z" fill="#11042A"/>
<path fill-rule="evenodd" clip-rule="evenodd" d="M25.9213 16.7854L25.9165 15.7097L27.0578 15.0303L26.8441 14.6713L22.1918 5.36654C27.9861 5.54016 33.1323 8.29331 36.5211 12.5169L30.8169 22.4994L29.1762 23.4761L29.6502 24.2724L29.8828 24.1339L25.699 31.4557L18.288 31.4887L17.9573 30.9176L15.7938 32.1702L16.2995 33.0437L17.4693 32.3665L17.4745 33.5298L16.8052 33.9173L16.9777 34.2152L16.8497 34.2895L22.2357 43.5654C22.0275 43.5721 21.8186 43.5755 21.6088 43.5755C15.8176 43.5755 10.628 40.9992 7.1237 36.9302L13.5967 25.2778L14.4172 24.8028L14.1643 24.366L14.0743 24.4181L17.9855 17.3773L25.5256 17.3437L25.8578 17.9017L28.006 16.6229L27.5319 15.8266L25.9213 16.7854ZM5.48668 34.729L15.1186 17.39L3.8332 17.4403C2.9728 19.6152 2.5 21.9857 2.5 24.4666C2.5 28.2435 3.59575 31.7645 5.48668 34.729ZM23.6385 45.9814L25.1254 48.5422L27.2874 47.2868L26.2889 45.5673C35.9732 43.429 43.2177 34.7938 43.2177 24.4666C43.2177 12.5324 33.543 2.85782 21.6088 2.85782C21.3859 2.85782 21.1638 2.86119 20.9425 2.8679L19.5085 0L17.2724 1.11803L18.2705 3.11412C7.92138 4.71905 0 13.6678 0 24.4666C0 36.4009 9.6746 46.0755 21.6088 46.0755C22.2933 46.0755 22.9703 46.0436 23.6385 45.9814ZM19.4525 5.47814C13.2843 6.17087 8.00434 9.79998 5.04334 14.9349L24.1383 14.8499L19.4525 5.47814ZM24.9621 43.2822L19.5626 33.9831L38.2307 33.9C35.4721 38.7502 30.6519 42.2751 24.9621 43.2822ZM39.423 31.3946C40.259 29.2467 40.7177 26.9102 40.7177 24.4666C40.7177 20.9397 39.7621 17.6359 38.0959 14.8001L28.5857 31.4429L39.423 31.3946ZM28.9541 18.2156L28.48 17.4193L26.3318 18.6981L26.8059 19.4944L28.9541 18.2156ZM29.9022 19.8083L29.4281 19.0119L27.2799 20.2907L27.754 21.0871L29.9022 19.8083ZM30.8503 21.4009L30.3762 20.6046L28.2281 21.8834L28.7021 22.6797L30.8503 21.4009ZM15.4286 26.5499L14.9229 25.6763L12.7593 26.9289L13.2651 27.8025L15.4286 26.5499ZM16.4401 28.297L15.9344 27.4234L13.7708 28.676L14.2766 29.5496L16.4401 28.297ZM17.4516 30.0441L16.9459 29.1705L14.7823 30.4231L15.288 31.2966L17.4516 30.0441Z" fill="url(#paint0_linear_729_9155)"/>
<path d="M67.9031 26.4163C67.79 27.7566 67.4509 28.8926 66.931 29.8695C65.8911 31.7778 64.0147 32.8456 60.9176 32.8456C56.4641 32.8456 54 30.1648 54 25.2122V23.7582C54 18.7601 56.5772 16.0112 61.0307 16.0112C65.0546 16.0112 67.3831 18.0331 67.8127 22.1225H64.7155C64.5121 19.8961 63.3591 18.692 61.0307 18.692C58.3857 18.692 57.0293 20.464 57.0293 23.9399V25.0531C57.0293 28.211 58.4083 30.0058 61.0533 30.0058C63.4722 30.0058 64.5347 28.7335 64.7382 26.4163H67.9031Z" fill="white"/>
<path d="M78.9674 29.8922C78.0858 31.5961 76.3451 32.8456 73.6549 32.8456C70.829 32.8456 69.4048 31.4825 69.4048 29.3469C69.4048 27.8929 70.0378 26.8025 71.1003 26.1436C71.462 25.8937 71.8463 25.712 72.2081 25.5984C72.9767 25.3258 73.9488 25.144 75.5764 24.8941C77.9049 24.5988 78.8318 24.2807 78.8318 23.213C78.8318 22.1225 78.131 21.4409 76.0964 21.4409C73.9488 21.4409 72.9767 22.3724 72.8863 24.0535H69.8344C70.0378 21.0774 72.2081 19.1236 75.9382 19.1236C77.3624 19.1236 78.4475 19.3054 79.3065 19.6916C81.002 20.4186 81.6802 21.8044 81.6802 23.69V32.5048H79.2839L78.9674 29.8922ZM74.6722 30.551C75.5312 30.551 76.2546 30.3465 76.8876 29.9603C78.1536 29.1652 78.8544 27.8475 78.8544 26.598V25.8937C78.3118 26.2799 77.4076 26.5526 76.232 26.7343C74.6496 26.9842 74.0166 27.166 73.4062 27.5522C72.8863 27.8929 72.6376 28.3473 72.6376 28.9153C72.6376 30.0058 73.3158 30.551 74.6722 30.551Z" fill="white"/>
<path d="M89.9027 26.1436L87.3255 28.9153V32.5048H84.4771V15.0116H87.3255V25.8256L87.8229 25.2122L93.158 19.4417H96.8429L92.0955 24.4852L96.9786 32.5048H93.6102L89.9027 26.1436Z" fill="white"/>
<path d="M109.819 28.6427C109.073 31.3007 106.971 32.8456 103.557 32.8456C99.1716 32.8456 97.024 30.3011 97.024 26.2572V25.9392C97.024 24.5306 97.2952 23.372 97.8378 22.3269C98.9229 20.2823 100.912 19.1236 103.648 19.1236C105.886 19.1236 107.468 19.8961 108.508 21.1456C109.548 22.3951 110 24.0081 110 25.6893V27.0751H99.9628C100.211 29.2106 101.523 30.392 103.67 30.392C105.253 30.392 106.18 29.7786 106.632 28.6427H109.819ZM103.67 21.4864C101.613 21.4864 100.325 22.6677 99.9854 24.7351H107.039C106.835 22.7359 105.75 21.4864 103.67 21.4864Z" fill="white"/>
<path d="M120.347 23.8036L116.978 32.5048H114.288L110.784 19.4417H113.723L116.006 28.7335L119.42 19.4417H121.364L124.529 28.7108L127.242 19.4417H130.135L126.089 32.5048H123.444L120.347 23.8036Z" fill="white"/>
<path d="M140.032 29.8922C139.15 31.5961 137.409 32.8456 134.719 32.8456C131.893 32.8456 130.469 31.4825 130.469 29.3469C130.469 27.8929 131.102 26.8025 132.165 26.1436C132.526 25.8937 132.911 25.712 133.272 25.5984C134.041 25.3258 135.013 25.144 136.641 24.8941C138.969 24.5988 139.896 24.2807 139.896 23.213C139.896 22.1225 139.195 21.4409 137.161 21.4409C135.013 21.4409 134.041 22.3724 133.951 24.0535H130.899C131.102 21.0774 133.272 19.1236 137.003 19.1236C138.427 19.1236 139.512 19.3054 140.371 19.6916C142.066 20.4186 142.745 21.8044 142.745 23.69V32.5048H140.348L140.032 29.8922ZM135.737 30.551C136.596 30.551 137.319 30.3465 137.952 29.9603C139.218 29.1652 139.919 27.8475 139.919 26.598V25.8937C139.376 26.2799 138.472 26.5526 137.296 26.7343C135.714 26.9842 135.081 27.166 134.471 27.5522C133.951 27.8929 133.702 28.3473 133.702 28.9153C133.702 30.0058 134.38 30.551 135.737 30.551Z" fill="white"/>
<path d="M145.541 32.5048V15.0116H148.503V32.5048H145.541Z" fill="white"/>
<path d="M156.862 26.1436L154.284 28.9153V32.5048H151.436V15.0116H154.284V25.8256L154.782 25.2122L160.117 19.4417H163.802L159.054 24.4852L163.937 32.5048H160.569L156.862 26.1436Z" fill="white"/>
<defs>
<linearGradient id="paint0_linear_729_9155" x1="0" y1="0" x2="45.1407" y2="2.93786" gradientUnits="userSpaceOnUse">
<stop stop-color="#F09F84"/>
<stop offset="1" stop-color="#4314B9"/>
</linearGradient>
</defs>
</svg>
