<svg width="84" height="56" viewBox="0 0 84 56" fill="none" xmlns="http://www.w3.org/2000/svg">
<g id="cat-withback">
<path id="Background" d="M71.3037 2.11328H12.6963C6.78888 2.11328 2 6.84366 2 12.6789V43.3789C2 49.2141 6.78888 53.9444 12.6963 53.9444H71.3037C77.2111 53.9444 82 49.2141 82 43.3789V12.6789C82 6.84366 77.2111 2.11328 71.3037 2.11328Z" fill="#FFD803" stroke="black" stroke-width="3.3177"/>
<g id="cat">
<g id="Cat">
<path id="Vector 3" d="M24.927 0L17.8203 53.8845H66.3823L58.6835 0L45.852 15.1787H37.9558L24.927 0Z" fill="black"/>
<path id="Vector 4" d="M25.7933 3.15625C28.7868 7.85966 30.7172 10.1689 34.562 13.7385C29.8746 13.4412 27.7188 14.2204 24.5977 17.1981C25.2255 11.7658 25.4755 8.68754 25.7933 3.15625Z" fill="#333333"/>
<path id="Vector 5" d="M56.6237 4.23438C53.9415 8.44807 52.2603 10.707 49.0508 14.6132C53.449 14.3813 55.562 15.1788 58.6167 18.4797C57.4405 12.9659 57.0334 9.85762 56.6237 4.23438Z" fill="#333333"/>
<g id="Group 33">
<path id="Ellipse 2" d="M52.6388 33.1331C49.7771 33.1331 47.4573 30.7641 47.4573 27.8419C47.4573 24.9197 49.7771 22.5508 52.6388 22.5508C55.5005 22.5508 57.8203 24.9197 57.8203 27.8419C57.8203 30.7641 55.5005 33.1331 52.6388 33.1331Z" fill="#FFD803"/>
<g id="Group 32">
<path id="Ellipse 3" d="M52.6351 31.0981C51.8338 31.0981 51.1843 29.6403 51.1843 27.842C51.1843 26.0437 51.8338 24.5859 52.6351 24.5859C53.4364 24.5859 54.0859 26.0437 54.0859 27.842C54.0859 29.6403 53.4364 31.0981 52.6351 31.0981Z" fill="#141414"/>
<path id="Ellipse 4" d="M50.7716 27.0295C49.8559 27.0295 49.1135 26.3006 49.1135 25.4015C49.1135 24.5023 49.8559 23.7734 50.7716 23.7734C51.6873 23.7734 52.4297 24.5023 52.4297 25.4015C52.4297 26.3006 51.6873 27.0295 50.7716 27.0295Z" fill="white"/>
</g>
</g>
<g id="Vector 6">
<mask id="mask0_51249_160709" style="mask-type:alpha" maskUnits="userSpaceOnUse" x="35" y="36" width="13" height="8">
<g id="path-9-outside-1">
<path id="Vector" d="M47.5413 36.1367H35.5938V43.5127H47.5413V36.1367Z" fill="white"/>
<path id="Vector_2" d="M40.4766 37.6094L41.6724 38.7174L42.868 37.6094H40.4766Z" fill="black"/>
</g>
</mask>
<g mask="url(#mask0_51249_160709)">
<path id="Vector_3" d="M40.4766 37.6094L41.6724 38.7174L42.868 37.6094H40.4766Z" fill="white"/>
<path id="Vector_4" d="M36.7852 40.8953C37.0004 41.0419 37.2021 41.1895 37.3988 41.3345C37.593 41.4776 37.787 41.6218 37.9741 41.7515C38.3422 42.0064 38.7432 42.2485 39.1859 42.349C39.6581 42.4561 40.1351 42.3938 40.6269 42.1243C41.0973 41.8666 41.5719 41.425 42.0887 40.7919L41.2559 40.1288C40.7761 40.7167 40.4038 41.0384 40.1081 41.2004C39.8339 41.3505 39.6258 41.3647 39.4254 41.3191C39.1956 41.2671 38.9363 41.1275 38.5882 40.8863C38.4173 40.768 38.2393 40.6357 38.0386 40.4877C37.8407 40.3418 37.6252 40.1841 37.3921 40.0254L36.7852 40.8953ZM41.2797 40.8192C42.3018 41.9104 43.2265 42.4873 44.1769 42.3932C45.1008 42.3016 45.8199 41.5876 46.4721 40.7931L45.6411 40.1276C44.9744 40.9399 44.5062 41.2988 44.0702 41.342C43.6605 41.3826 43.0525 41.1561 42.0648 40.1016L41.2797 40.8192ZM42.2071 40.4604V38.7194H41.1375V40.4604H42.2071ZM41.6723 38.7194L40.9404 39.4899L41.6723 40.168L42.4041 39.4899L41.6723 38.7194ZM40.4765 37.6114V36.5547H37.7731L39.7447 38.3819L40.4765 37.6114ZM42.8679 37.6114L43.5997 38.3819L45.5715 36.5547H42.8679V37.6114ZM42.4041 37.9489L41.2083 36.8407L39.7447 38.3819L40.9404 39.4899L42.4041 37.9489ZM40.4765 38.6679H42.8679V36.5547H40.4765V38.6679ZM42.1362 36.8407L40.9404 37.9489L42.4041 39.4899L43.5997 38.3819L42.1362 36.8407Z" fill="white"/>
</g>
</g>
<g id="Group 34">
<path id="Ellipse 2_2" d="M30.5135 33.1331C33.2651 33.1331 35.4957 30.7641 35.4957 27.8419C35.4957 24.9197 33.2651 22.5508 30.5135 22.5508C27.7619 22.5508 25.5312 24.9197 25.5312 27.8419C25.5312 30.7641 27.7619 33.1331 30.5135 33.1331Z" fill="#FFD803"/>
<g id="Group 32_2">
<path id="Ellipse 3_2" d="M30.5122 31.0981C31.2827 31.0981 31.9072 29.6403 31.9072 27.842C31.9072 26.0437 31.2827 24.5859 30.5122 24.5859C29.7418 24.5859 29.1172 26.0437 29.1172 27.842C29.1172 29.6403 29.7418 31.0981 30.5122 31.0981Z" fill="#141414"/>
<path id="Ellipse 4_2" d="M32.3053 27.0256C33.1858 27.0256 33.8996 26.2967 33.8996 25.3976C33.8996 24.4984 33.1858 23.7695 32.3053 23.7695C31.4247 23.7695 30.7109 24.4984 30.7109 25.3976C30.7109 26.2967 31.4247 27.0256 32.3053 27.0256Z" fill="white"/>
</g>
</g>
</g>
</g>
</g>
</svg>
