<svg width="173" height="104" viewBox="0 0 173 104" fill="none" xmlns="http://www.w3.org/2000/svg">
<g filter="url(#filter0_d_784_5175)">
<rect x="32" y="28" width="40" height="40" rx="8" fill="url(#paint0_linear_784_5175)"/>
<path fill-rule="evenodd" clip-rule="evenodd" d="M59.9993 48.1079L58.3993 49.0997L58.3993 39.4004L58.4882 39.4004L59.9993 40.4453L59.9993 48.1079ZM57.6002 39.4L57.6002 49.088L46.4002 49.088L46.4002 39.4L57.6002 39.4ZM45.5982 49.1124L45.5982 39.4L45.5093 39.4L43.9982 40.4449L43.9982 48.1075L45.5982 49.1124ZM53.9999 50.3721L49.9999 50.3721L49.9999 57.5003L50.9999 58.6007L52.9999 58.6007L53.9999 57.5003L53.9999 50.3721ZM53.9993 38.2283L49.9993 38.2283L49.9993 37.7005L50.9993 36.6001L52.9993 36.6001L53.9993 37.7005L53.9993 38.2283Z" fill="#F6F6F7"/>
</g>
<path d="M103.552 39.248V56H100.192V48.872H93.016V56H89.656V39.248H93.016V46.136H100.192V39.248H103.552ZM112.283 56.216C111.003 56.216 109.851 55.936 108.827 55.376C107.803 54.8 106.995 53.992 106.403 52.952C105.827 51.912 105.539 50.712 105.539 49.352C105.539 47.992 105.835 46.792 106.427 45.752C107.035 44.712 107.859 43.912 108.899 43.352C109.939 42.776 111.099 42.488 112.379 42.488C113.659 42.488 114.819 42.776 115.859 43.352C116.899 43.912 117.715 44.712 118.307 45.752C118.915 46.792 119.219 47.992 119.219 49.352C119.219 50.712 118.907 51.912 118.283 52.952C117.675 53.992 116.843 54.8 115.787 55.376C114.747 55.936 113.579 56.216 112.283 56.216ZM112.283 53.288C112.891 53.288 113.459 53.144 113.987 52.856C114.531 52.552 114.963 52.104 115.283 51.512C115.603 50.92 115.763 50.2 115.763 49.352C115.763 48.088 115.427 47.12 114.755 46.448C114.099 45.76 113.291 45.416 112.331 45.416C111.371 45.416 110.563 45.76 109.907 46.448C109.267 47.12 108.947 48.088 108.947 49.352C108.947 50.616 109.259 51.592 109.883 52.28C110.523 52.952 111.323 53.288 112.283 53.288ZM125.116 45.464V51.896C125.116 52.344 125.22 52.672 125.428 52.88C125.652 53.072 126.02 53.168 126.532 53.168H128.092V56H125.98C123.148 56 121.732 54.624 121.732 51.872V45.464H120.148V42.704H121.732V39.416H125.116V42.704H128.092V45.464H125.116ZM135.237 42.488C136.229 42.488 137.101 42.688 137.853 43.088C138.605 43.472 139.197 43.976 139.629 44.6V42.704H143.013V56.096C143.013 57.328 142.765 58.424 142.269 59.384C141.773 60.36 141.029 61.128 140.037 61.688C139.045 62.264 137.845 62.552 136.437 62.552C134.549 62.552 132.997 62.112 131.781 61.232C130.581 60.352 129.901 59.152 129.741 57.632H133.077C133.253 58.24 133.629 58.72 134.205 59.072C134.797 59.44 135.509 59.624 136.341 59.624C137.317 59.624 138.109 59.328 138.717 58.736C139.325 58.16 139.629 57.28 139.629 56.096V54.032C139.197 54.656 138.597 55.176 137.829 55.592C137.077 56.008 136.213 56.216 135.237 56.216C134.117 56.216 133.093 55.928 132.165 55.352C131.237 54.776 130.501 53.968 129.957 52.928C129.429 51.872 129.165 50.664 129.165 49.304C129.165 47.96 129.429 46.768 129.957 45.728C130.501 44.688 131.229 43.888 132.141 43.328C133.069 42.768 134.101 42.488 135.237 42.488ZM139.629 49.352C139.629 48.536 139.469 47.84 139.149 47.264C138.829 46.672 138.397 46.224 137.853 45.92C137.309 45.6 136.725 45.44 136.101 45.44C135.477 45.44 134.901 45.592 134.373 45.896C133.845 46.2 133.413 46.648 133.077 47.24C132.757 47.816 132.597 48.504 132.597 49.304C132.597 50.104 132.757 50.808 133.077 51.416C133.413 52.008 133.845 52.464 134.373 52.784C134.917 53.104 135.493 53.264 136.101 53.264C136.725 53.264 137.309 53.112 137.853 52.808C138.397 52.488 138.829 52.04 139.149 51.464C139.469 50.872 139.629 50.168 139.629 49.352ZM147.302 56.168C146.694 56.168 146.19 55.984 145.79 55.616C145.406 55.232 145.214 54.76 145.214 54.2C145.214 53.64 145.406 53.176 145.79 52.808C146.19 52.424 146.694 52.232 147.302 52.232C147.894 52.232 148.382 52.424 148.766 52.808C149.15 53.176 149.342 53.64 149.342 54.2C149.342 54.76 149.15 55.232 148.766 55.616C148.382 55.984 147.894 56.168 147.302 56.168ZM150.704 49.304C150.704 47.96 150.968 46.768 151.496 45.728C152.04 44.688 152.768 43.888 153.68 43.328C154.608 42.768 155.64 42.488 156.776 42.488C157.768 42.488 158.632 42.688 159.368 43.088C160.12 43.488 160.72 43.992 161.168 44.6V42.704H164.552V56H161.168V54.056C160.736 54.68 160.136 55.2 159.368 55.616C158.616 56.016 157.744 56.216 156.752 56.216C155.632 56.216 154.608 55.928 153.68 55.352C152.768 54.776 152.04 53.968 151.496 52.928C150.968 51.872 150.704 50.664 150.704 49.304ZM161.168 49.352C161.168 48.536 161.008 47.84 160.688 47.264C160.368 46.672 159.936 46.224 159.392 45.92C158.848 45.6 158.264 45.44 157.64 45.44C157.016 45.44 156.44 45.592 155.912 45.896C155.384 46.2 154.952 46.648 154.616 47.24C154.296 47.816 154.136 48.504 154.136 49.304C154.136 50.104 154.296 50.808 154.616 51.416C154.952 52.008 155.384 52.464 155.912 52.784C156.456 53.104 157.032 53.264 157.64 53.264C158.264 53.264 158.848 53.112 159.392 52.808C159.936 52.488 160.368 52.04 160.688 51.464C161.008 50.872 161.168 50.168 161.168 49.352ZM169.058 41.12C168.466 41.12 167.97 40.936 167.57 40.568C167.186 40.184 166.994 39.712 166.994 39.152C166.994 38.592 167.186 38.128 167.57 37.76C167.97 37.376 168.466 37.184 169.058 37.184C169.65 37.184 170.138 37.376 170.522 37.76C170.922 38.128 171.122 38.592 171.122 39.152C171.122 39.712 170.922 40.184 170.522 40.568C170.138 40.936 169.65 41.12 169.058 41.12ZM170.714 42.704V56H167.354V42.704H170.714Z" fill="#F1EFF5"/>
<defs>
<filter id="filter0_d_784_5175" x="0" y="0" width="104" height="104" filterUnits="userSpaceOnUse" color-interpolation-filters="sRGB">
<feFlood flood-opacity="0" result="BackgroundImageFix"/>
<feColorMatrix in="SourceAlpha" type="matrix" values="0 0 0 0 0 0 0 0 0 0 0 0 0 0 0 0 0 0 127 0" result="hardAlpha"/>
<feOffset dy="4"/>
<feGaussianBlur stdDeviation="16"/>
<feComposite in2="hardAlpha" operator="out"/>
<feColorMatrix type="matrix" values="0 0 0 0 0.691667 0 0 0 0 0.242083 0 0 0 0 0.662186 0 0 0 0.6 0"/>
<feBlend mode="normal" in2="BackgroundImageFix" result="effect1_dropShadow_784_5175"/>
<feBlend mode="normal" in="SourceGraphic" in2="effect1_dropShadow_784_5175" result="shape"/>
</filter>
<linearGradient id="paint0_linear_784_5175" x1="52" y1="28" x2="52" y2="68" gradientUnits="userSpaceOnUse">
<stop stop-color="#CC58C4"/>
<stop offset="1" stop-color="#B03EA9"/>
</linearGradient>
</defs>
</svg>
