<svg width="40" height="40" viewBox="0 0 40 40" fill="none" xmlns="http://www.w3.org/2000/svg">
<g clip-path="url(#clip0_1197_1261)">
<path d="M11.1301 0C9.55891 0.00238483 8.05274 0.627599 6.94173 1.73861C5.83072 2.84962 5.20551 4.35578 5.20312 5.92698C5.20313 8.94758 7.47834 10.8261 11.1331 10.8261C14.7879 10.8261 17.0601 8.94758 17.0601 5.92698C17.0577 4.35526 16.4321 2.84864 15.3204 1.73755C14.2088 0.626453 12.7018 0.00158981 11.1301 0ZM14.0846 4.3731C14.0858 4.46938 14.0678 4.56493 14.0318 4.65422C13.9958 4.74351 13.9424 4.82476 13.8748 4.89325C13.8071 4.96175 13.7265 5.01614 13.6377 5.05325C13.5488 5.09037 13.4535 5.10948 13.3572 5.10947H8.90599C8.81022 5.10986 8.71531 5.09134 8.62672 5.05497C8.53813 5.01859 8.45759 4.96508 8.38973 4.8975C8.32187 4.82992 8.26803 4.7496 8.23129 4.66116C8.19455 4.57272 8.17563 4.47789 8.17563 4.38212V4.32802C8.17722 4.13564 8.25497 3.95172 8.39185 3.81653C8.52873 3.68134 8.7136 3.60588 8.90599 3.60668H13.3572C13.5501 3.60668 13.7351 3.68331 13.8715 3.81972C14.008 3.95612 14.0846 4.14113 14.0846 4.33403V4.3731Z" fill="#373736"/>
<path d="M39.9566 20.2151C39.9494 20.1649 39.9246 20.1188 39.8866 20.0852C39.8486 20.0516 39.7999 20.0327 39.7492 20.0317C39.7069 20.0323 39.6657 20.0451 39.6305 20.0686C39.5953 20.092 39.5676 20.1252 39.5508 20.164C39.0072 21.4973 38.3766 22.7934 37.6633 24.0442C37.0863 25.033 36.3709 26.0248 35.2919 26.5057C35.0658 26.6047 34.8302 26.6803 34.5886 26.7312C34.3403 26.7816 34.0876 26.8067 33.8342 26.8063C33.0992 26.7887 32.3847 26.5605 31.7757 26.1486C31.1667 25.7367 30.6888 25.1586 30.3989 24.483C29.7308 22.9685 28.9334 21.5144 28.0154 20.1369C26.102 17.3609 23.6284 15.0164 20.754 13.2542C20.2931 12.9717 19.8233 12.7042 19.3444 12.4517C17.5253 11.5923 15.5835 11.0214 13.5887 10.7596C13.5208 10.7498 13.4518 10.7665 13.3958 10.8062C13.3399 10.8459 13.3013 10.9056 13.2882 10.973C13.2728 11.0398 13.2832 11.1099 13.3172 11.1695C13.3511 11.229 13.4062 11.2737 13.4715 11.2945C14.476 11.6201 15.3895 12.1782 16.1374 12.9236C16.7924 13.5867 17.3094 14.373 17.6586 15.2371C18.0079 16.1012 18.1824 17.0259 18.1722 17.9579C18.1722 18.5049 18.1061 19.4607 17.9859 20.6088L17.9227 21.2099C17.6823 23.389 17.3487 25.6522 16.9399 27.9394C16.8948 28.1949 16.8437 28.4533 16.7957 28.7088C16.426 30.6083 16.0443 32.574 17.2224 34.4825C17.4667 34.8791 17.7584 35.2445 18.0911 35.5705C18.7934 36.2825 19.6853 36.778 20.6608 36.9982C21.0939 37.0872 21.5351 37.1315 21.9773 37.1304C23.2862 37.0892 24.5751 36.7964 25.7733 36.2678C30.0241 34.5473 33.7049 31.6653 36.395 27.9514C37.243 26.735 37.9698 25.4384 38.565 24.0802C39.0878 22.9715 39.521 21.8227 39.8604 20.6449C39.8784 20.5727 39.8995 20.5036 39.9175 20.4315C39.9437 20.3624 39.957 20.289 39.9566 20.2151ZM32.2232 32.3876C32.106 32.4898 31.9888 32.583 31.8686 32.6882C31.9888 32.592 32.106 32.4958 32.2232 32.3876Z" fill="#fc4f00"/>
<path d="M8.97607 11.121C8.96586 11.1673 8.94349 11.2101 8.91127 11.245C8.87905 11.2799 8.83814 11.3055 8.79273 11.3194C7.71103 11.6521 6.73094 12.2528 5.94344 13.0656C5.32433 13.7166 4.8437 14.4864 4.53064 15.3284C4.21757 16.1705 4.07858 17.0673 4.12207 17.9647C4.12207 18.5177 4.18218 19.4374 4.28738 20.5495C4.67352 24.6921 5.33825 28.804 6.27706 32.8573C6.37324 33.272 6.4574 33.6928 6.59265 34.0986L6.63773 34.2579C6.65618 34.3091 6.66731 34.3628 6.67079 34.4172C6.67079 34.8259 6.25903 34.6275 6.08771 34.4923C4.19239 32.99 2.69315 31.0471 1.72062 28.8328C0.221919 25.3195 0.1081 21.3691 1.40203 17.7753C2.3037 15.2236 3.96277 12.8191 6.43335 11.5718C6.58664 11.4937 6.73391 11.4215 6.89922 11.3524C7.45682 11.1175 8.03155 10.9256 8.6184 10.7783C8.66448 10.7663 8.71292 10.7666 8.75884 10.7793C8.80475 10.7919 8.84651 10.8165 8.87989 10.8505L8.90093 10.8715C8.93416 10.9029 8.95859 10.9425 8.97178 10.9862C8.98496 11.03 8.98644 11.0765 8.97607 11.121Z" fill="#fc4f00"/>
<path d="M17.0667 17.9975C17.0667 21.2796 14.4068 39.5114 11.1277 39.5114C7.84863 39.5114 5.20072 21.2796 5.20072 17.9975C5.18292 17.2062 5.32341 16.4192 5.61395 15.6829C5.90449 14.9466 6.33922 14.2757 6.89261 13.7098C7.446 13.1438 8.1069 12.6941 8.83649 12.3871C9.56608 12.08 10.3497 11.9219 11.1412 11.9219C11.9328 11.9219 12.7164 12.08 13.446 12.3871C14.1756 12.6941 14.8365 13.1438 15.3898 13.7098C15.9432 14.2757 16.378 14.9466 16.6685 15.6829C16.959 16.4192 17.0995 17.2062 17.0817 17.9975H17.0667Z" fill="#373736"/>
</g>
<defs>
<clipPath id="clip0_1197_1261">
<rect width="40" height="40" fill=""/>
</clipPath>
</defs>
</svg>
