<svg width="220" height="82" viewBox="0 0 220 82" fill="none" xmlns="http://www.w3.org/2000/svg">
<g id="Group 1933">
<path id="Vector" d="M119.09 18.1113H110.865H101.714L92.7266 27.2629H106.401H110.097L119.09 18.1113Z" fill="#133D89"/>
<path id="Vector_2" d="M119.091 18.1113V26.3855V35.5973L110 44.6508V30.8788V27.1588L119.091 18.1113Z" fill="#24AFE4"/>
<g id="Group">
<path id="Vector_3" d="M110.138 54.2783C95.2714 54.2783 83.1787 42.1048 83.1787 27.1391C83.1787 12.1734 95.2714 0 110.138 0C125.004 0 137.097 12.1734 137.097 27.1391C137.097 42.1048 125.004 54.2783 110.138 54.2783ZM110.138 1.21973C95.9367 1.21973 84.3904 12.8491 84.3904 27.1391C84.3904 41.4292 95.9426 53.0585 110.138 53.0585C124.333 53.0585 135.885 41.4292 135.885 27.1391C135.885 12.8491 124.333 1.21973 110.138 1.21973Z" fill="#133D89"/>
<g id="Group_2">
<path id="Vector_4" d="M107.765 0.519531H112.522L110.14 5.81701L107.765 0.519531Z" fill="#133D89"/>
<path id="Vector_5" d="M112.522 53.7701H107.765L110.146 48.4727L112.522 53.7701Z" fill="#133D89"/>
</g>
<g id="Group_3">
<path id="Vector_6" d="M136.593 24.7461V29.5413L131.331 27.1437L136.593 24.7461Z" fill="#133D89"/>
<path id="Vector_7" d="M83.6904 29.5413V24.7461L88.9528 27.1437L83.6904 29.5413Z" fill="#133D89"/>
</g>
</g>
<path id="Vector_8" d="M18.1818 71.4297C18.1818 73.3634 16.5897 74.9687 14.6479 74.9687H13.665L18.1818 80.3928V81.2562H14.5454L9.2929 74.9687H3.33483V81.2562H0V62.9531H14.6419C16.5837 62.9531 18.1757 64.5585 18.1757 66.4921V71.4297H18.1818ZM14.6479 71.6061C14.7504 71.6061 14.8228 71.527 14.8228 71.4297V66.4921C14.8228 66.3888 14.7444 66.3158 14.6479 66.3158H3.51574C3.41323 66.3158 3.34087 66.3948 3.34087 66.4921V71.4297C3.34087 71.5331 3.41926 71.6061 3.51574 71.6061H14.6479Z" fill="#24AFE4"/>
<path id="Vector_9" d="M47.2716 62.9531L40.5886 81.2562H37.9386L33.1685 68.2667C31.6151 72.5358 29.9276 77.0114 28.3985 81.2562H25.7728L19.0898 62.9531H22.6598L27.0948 75.0256L31.5298 62.9531H34.8195L39.2545 75.0256L43.6895 62.9531H47.2594H47.2716Z" fill="#24AFE4"/>
<g id="Group_4">
<path id="Vector_10" d="M63.9595 76.5927L52.9477 63.3789H49.3662V81.3999H52.6448V68.1861L63.6862 81.3999H67.2677V63.3789H63.9595V76.5927Z" fill="#133D89"/>
<path id="Vector_11" d="M84.5216 63.3789H73.5573C71.6448 63.3789 70.1006 64.9335 70.1006 66.8587V81.3999H73.3851V75.3431H84.6998V81.3999H88.0081V66.8587C88.0081 64.9335 86.44 63.3789 84.5275 63.3789H84.5216ZM84.6938 72.0366H73.3792V66.8528C73.3792 66.7511 73.4564 66.6794 73.5514 66.6794H84.5157C84.6166 66.6794 84.6879 66.7571 84.6879 66.8528V72.0366H84.6938Z" fill="#133D89"/>
<path id="Vector_12" d="M102.151 77.3939L94.1207 63.3789H90.3135L100.66 81.3999H103.618L113.958 63.3789H110.157L102.151 77.3939Z" fill="#133D89"/>
<path id="Vector_13" d="M119.082 63.3789H115.798V81.3999H119.082V63.3789Z" fill="#133D89"/>
<path id="Vector_14" d="M135.66 63.3789H124.696C122.784 63.3789 121.239 64.9335 121.239 66.8587V77.9201C121.239 79.8453 122.784 81.3999 124.696 81.3999H135.66C137.573 81.3999 139.141 79.8453 139.141 77.9201V71.2115H131.782V74.518H135.833V77.9201C135.833 78.0217 135.755 78.0935 135.66 78.0935H124.696C124.595 78.0935 124.524 78.0157 124.524 77.9201V66.8587C124.524 66.7571 124.601 66.6853 124.696 66.6853H135.66C135.761 66.6853 135.833 66.7631 135.833 66.8587V68.2578H139.141V66.8587C139.141 64.9335 137.573 63.3789 135.66 63.3789Z" fill="#133D89"/>
<path id="Vector_15" d="M156.347 63.3789H145.383C143.47 63.3789 141.926 64.9335 141.926 66.8587V81.3999H145.21V75.3431H156.525V81.3999H159.833V66.8587C159.833 64.9335 158.265 63.3789 156.353 63.3789H156.347ZM156.519 72.0366H145.204V66.8528C145.204 66.7511 145.282 66.6794 145.377 66.6794H156.341C156.442 66.6794 156.513 66.7571 156.513 66.8528V72.0366H156.519Z" fill="#133D89"/>
<path id="Vector_16" d="M161.771 66.6794H169.076V81.3999H172.384V66.6794H179.672V63.3789H161.771V66.6794Z" fill="#133D89"/>
<path id="Vector_17" d="M195.928 63.3789H184.94C183.028 63.3789 181.483 64.9335 181.483 66.8587V77.9201C181.483 79.8453 183.028 81.3999 184.94 81.3999H195.928C197.817 81.3999 199.385 79.8453 199.385 77.9201V66.8587C199.385 64.9335 197.817 63.3789 195.928 63.3789ZM196.077 77.9201C196.077 78.0217 195.999 78.0935 195.928 78.0935H184.94C184.839 78.0935 184.768 78.0157 184.768 77.9201V66.8587C184.768 66.7571 184.845 66.6853 184.94 66.6853H195.928C196.005 66.6853 196.077 66.7631 196.077 66.8587V77.9201Z" fill="#133D89"/>
<path id="Vector_18" d="M219.993 71.7372V66.8822C219.993 64.9808 218.425 63.4023 216.513 63.4023H202.092V81.3994H205.376V75.2171H211.245L216.418 81.3994H219.999V80.5504L215.551 75.2171H216.519C218.431 75.2171 219.999 73.6386 219.999 71.7372H219.993ZM205.549 71.9106C205.448 71.9106 205.376 71.8329 205.376 71.7372V66.8822C205.376 66.7805 205.454 66.7088 205.549 66.7088H216.513C216.614 66.7088 216.685 66.7865 216.685 66.8822V71.7372C216.685 71.8389 216.608 71.9106 216.513 71.9106H205.549Z" fill="#133D89"/>
</g>
</g>
</svg>
