<svg width="214" height="30" viewBox="0 0 214 30" fill="none" xmlns="http://www.w3.org/2000/svg">
<g id="snowcrash-logo-black-v2 1" clip-path="url(#clip0_4866_4834)">
<path id="Vector" d="M213.84 30V16.8397C213.84 11.1397 209.846 7.97207 204.752 7.97207C201.55 7.97207 199.031 9.03971 197.591 10.9676V0H191.389V30H197.591V18.4059C197.591 14.6956 199.848 13.1118 202.876 13.1118C205.658 13.1118 207.638 14.6118 207.638 17.5235V30H213.84Z" fill="#fff"/>
<path id="Vector_2" d="M19.2625 23.1816C19.2625 27.7842 14.9835 30 10.114 30C5.55851 30 2.19345 28.2099 0.553101 24.9279L5.65224 22.2426C6.28963 23.9976 7.83624 25.0112 10.114 25.0112C11.9887 25.0112 13.2541 24.4145 13.2541 23.1816C13.2541 21.9629 11.4486 21.4829 9.25228 20.8989C5.84242 19.9924 1.49044 18.8354 1.49044 14.2746C1.49044 9.92636 5.45072 7.5 10.1375 7.5C13.8259 7.5 17.0128 9.07514 18.7891 12.0149L13.7978 14.5729C13.1803 13.2109 11.7361 12.3408 10.1561 12.3791C8.69859 12.3791 7.51752 12.9758 7.51752 14.1341C7.51752 15.3631 9.2898 15.8193 11.4574 16.3773C14.87 17.2558 19.2625 18.3865 19.2625 23.1816Z" fill="#fff"/>
<path id="Vector_3" d="M43.5847 16.5577V30H37.3814V17.2561C37.3814 14.282 35.4012 12.7499 32.6239 12.7499C29.5941 12.7499 27.3366 14.3676 27.3366 18.1574V30H21.1334V8.11286H27.3366V10.5598C28.7772 8.5905 31.2971 7.5 34.5001 7.5C39.5944 7.5 43.5847 10.7355 43.5847 16.5577Z" fill="#fff"/>
<path id="Vector_4" d="M56.9483 25.2572V23.0339H67.0877C67.6311 21.6726 67.9091 20.2188 67.9064 18.7519C67.8741 13.7652 64.6023 9.38658 59.8489 7.96844C55.0954 6.55033 49.979 8.42644 47.2484 12.5889L56.9828 16.9663V19.0162L46.5719 23.6969C48.3403 27.2665 51.838 29.6441 55.7905 29.9634C59.743 30.2827 63.5732 28.4971 65.8854 25.2572H56.9483Z" fill="#fff"/>
<path id="Vector_5" d="M46.1513 14.5693C45.6892 15.9903 45.4532 17.503 45.4556 19.0286C45.4557 20.054 45.5615 21.0753 45.7707 22.0693L52.9393 18.1968L46.1513 14.5693Z" fill="#fff"/>
<path id="Vector_6" d="M103.455 7.5L96.2971 30H90.7581L86.6186 16.3666L82.4741 30H76.9394L69.7777 7.5H75.9478L79.7813 21.3094L83.8787 7.5H89.3721L93.4694 21.3558L97.2936 7.5H103.455Z" fill="#fff"/>
<path id="Vector_7" d="M117.407 7.50156C110.449 7.50156 105.326 12.3976 105.326 18.7458C105.326 25.0985 110.449 29.999 117.407 29.999C121.691 30.0531 125.667 27.9289 127.777 24.458L122.648 21.7291C121.734 23.4796 119.764 24.5413 117.383 24.5413C113.867 24.5413 111.255 22.1503 111.255 18.7458C111.255 15.3414 113.857 12.9109 117.383 12.9109C119.57 12.8437 121.601 13.9559 122.601 15.767L127.664 12.9943C125.592 9.54478 121.652 7.43428 117.407 7.50156Z" fill="#fff"/>
<path id="Vector_8" d="M144.615 7.5V13.8572C141.05 13.503 136.52 14.8289 136.52 19.4561V30H129.648V7.945H136.52V11.7366C137.907 8.73514 141.236 7.5 144.615 7.5Z" fill="#fff"/>
<path id="Vector_9" fill-rule="evenodd" clip-rule="evenodd" d="M168.937 8.09671V29.4076H163.519V26.8891C162.012 28.8066 159.745 30 156.684 30C151.106 30 146.486 25.099 146.486 18.7456C146.486 12.3923 151.098 7.5 156.676 7.5C159.737 7.5 162.003 8.68907 163.51 10.6109V8.09671H168.937ZM163.519 18.7456C163.519 15.1696 161.044 12.7389 157.69 12.7389C154.335 12.7389 151.904 15.1696 151.904 18.7456C151.904 22.3216 154.378 24.7567 157.69 24.7567C161.001 24.7567 163.519 22.3259 163.519 18.7456Z" fill="#fff"/>
<path id="Vector_10" d="M189.518 23.1816C189.518 27.7842 185.238 30 180.367 30C175.815 30 172.444 28.2099 170.808 24.9279L175.904 22.2426C176.541 23.9976 178.093 25.0112 180.367 25.0112C182.242 25.0112 183.508 24.4145 183.508 23.1816C183.508 21.9629 181.705 21.4829 179.513 20.8989C176.109 19.9924 171.764 18.8354 171.764 14.2746C171.764 9.92636 175.721 7.5 180.413 7.5C184.103 7.5 187.291 9.07514 189.063 12.0149L184.056 14.5729C183.438 13.2117 181.993 12.3421 180.413 12.3791C178.956 12.3791 177.775 12.9758 177.775 14.1341C177.775 15.3631 179.547 15.8193 181.714 16.3773C185.126 17.2558 189.518 18.3865 189.518 23.1816Z" fill="#fff"/>
</g>
<defs>
<clipPath id="clip0_4866_4834">
<rect width="214" height="30" fill="white"/>
</clipPath>
</defs>
</svg>
