<?xml version="1.0" encoding="utf-8"?>
<!-- Generator: Adobe Illustrator 24.1.0, SVG Export Plug-In . SVG Version: 6.00 Build 0)  -->
<svg version="1.1" id="Layer_1" xmlns="http://www.w3.org/2000/svg" xmlns:xlink="http://www.w3.org/1999/xlink" x="0px" y="0px"
	 viewBox="0 0 1280 610" style="enable-background:new 0 0 1280 610;" xml:space="preserve">
<style type="text/css">
	.st0{fill:none;}
	.st1{fill:#4076BA;}
	.st2{fill:#788EA7;}
</style>
<g>
	<g>
		<polygon class="st0" points="92.78,137.22 226.22,89.3 92.78,40.73 		"/>
		<polygon class="st0" points="115.76,222.51 115.76,222.79 236.21,266.63 236.21,178.67 		"/>
		<polygon class="st0" points="70.04,502.11 171.11,538.89 264.46,572.87 264.46,538.89 264.46,352.7 70.04,281.93 		"/>
		<polygon class="st1" points="83.74,73.01 202.23,116.14 264.13,93.9 35.29,11.71 35.29,176.1 83.74,158.7 		"/>
		<polygon class="st2" points="104.15,218.17 211.1,179.24 211.1,298.86 264.46,328.93 264.46,94.02 264.46,93.79 264.13,93.9 
			202.23,116.14 83.74,158.7 35.29,176.1 12.09,184.43 12.09,184.92 83.74,225.8 		"/>
		<path class="st1" d="M12.09,185.06v406.78v6.45l312.92-168.42l57.22-33l-59.46-34.52L12.09,185.06z M70.04,496.02V287.61
			l188.56,109.95"/>
	</g>
	<g>
		<g>
			<path class="st2" d="M446.77,196.51v-19.29h106.1v19.29h-43.36v120.42h-19.29V196.51H446.77z"/>
			<path class="st2" d="M654.78,257.31c-0.13,0.13-8.8,20.01-26.02,59.63h-18.8l-60.89-139.61h11.1c2.99,0,5.78,0.81,8.38,2.44
				c2.6,1.62,4.42,3.8,5.46,6.53l43.55,99.86c1.1,2.54,1.69,5.39,1.75,8.57c0.2-3.25,0.81-6.1,1.85-8.57l43.55-99.86
				c1.17-2.73,3.02-4.9,5.55-6.53c2.53-1.62,5.29-2.44,8.28-2.44h11.1l-27.38,62.84l20.07,45.99c0.51,1.23,0.91,2.58,1.17,4.05
				c0.26,1.46,0.45,3.04,0.58,4.72c0.2-3.51,0.81-6.43,1.85-8.77l43.55-99.86c1.17-2.73,3.02-4.9,5.56-6.53
				c2.54-1.62,5.3-2.44,8.28-2.44h11.1l-60.89,139.61h-18.8l-18.02-41.41c-2.01-4.61-3.02-8.73-3.02-12.37
				C653.7,261.08,654.06,259.13,654.78,257.31z"/>
			<path class="st2" d="M842.33,316.94H756V177.32h86.32v19.29h-67.03v40.24h54.27v19.29h-54.27v41.5h67.03V316.94z"/>
			<path class="st2" d="M859.76,316.94V177.32h19.29v120.32h60.31v19.29H859.76z"/>
			<path class="st2" d="M1026.36,239.58v19.29h-56.51v58.07h-19.29V177.32h86.32v19.29h-67.03v42.96H1026.36z"/>
			<path class="st2" d="M1037.17,196.51v-19.29h106.1v19.29h-43.35v120.42h-19.29V196.51H1037.17z"/>
			<path class="st2" d="M1267,316.94h-19.29v-60.6h-75.22v60.6h-19.29V177.32h19.29v59.72h75.22v-59.72H1267V316.94z"/>
		</g>
		<g>
			<path class="st1" d="M446.43,461.52V321.9h52.42c6.43,0,12.62,0.83,18.56,2.48c5.94,1.66,11.49,4.01,16.66,7.06
				c5.16,3.05,9.87,6.71,14.13,10.96c4.25,4.25,7.91,8.96,10.96,14.13c3.05,5.16,5.41,10.72,7.06,16.66
				c1.66,5.95,2.49,12.13,2.49,18.56s-0.83,12.62-2.49,18.56c-1.66,5.94-4.01,11.5-7.06,16.66c-3.05,5.16-6.71,9.87-10.96,14.13
				c-4.25,4.25-8.96,7.89-14.13,10.91c-5.16,3.02-10.72,5.36-16.66,7.02c-5.95,1.66-12.13,2.48-18.56,2.48H446.43z M498.84,442.23
				c6.95,0,13.49-1.31,19.63-3.95c6.14-2.63,11.5-6.24,16.08-10.81c4.58-4.58,8.2-9.94,10.87-16.08c2.66-6.14,3.99-12.68,3.99-19.63
				s-1.34-13.5-3.99-19.63c-2.67-6.14-6.29-11.5-10.87-16.07c-4.58-4.58-9.94-8.2-16.08-10.87c-6.14-2.66-12.68-3.99-19.63-3.99
				h-33.13v101.03H498.84z"/>
			<path class="st1" d="M605.82,461.52h-19.29V321.9h50.07c5.65,0,10.96,1.07,15.93,3.22c4.97,2.14,9.29,5.05,12.96,8.72
				c3.67,3.67,6.58,7.99,8.72,12.96c2.14,4.97,3.22,10.28,3.22,15.93c0,4.55-0.7,8.88-2.1,13.01c-1.4,4.13-3.36,7.88-5.89,11.25
				c-2.54,3.38-5.54,6.32-9.01,8.82c-3.48,2.5-7.26,4.4-11.35,5.7l44.43,60.01h-13.25c-3.77,0-7.1-0.73-9.99-2.19
				c-2.89-1.46-5.28-3.65-7.16-6.58l-36.54-49.3h-20.75V461.52z M605.82,341.19v42.96h30.78c2.99,0,5.78-0.55,8.38-1.66
				c2.6-1.1,4.87-2.63,6.82-4.58c1.95-1.95,3.49-4.22,4.63-6.82c1.14-2.6,1.71-5.39,1.71-8.38c0-2.98-0.57-5.78-1.71-8.38
				c-1.14-2.6-2.68-4.87-4.63-6.82c-1.95-1.95-4.22-3.49-6.82-4.63c-2.6-1.14-5.39-1.71-8.38-1.71H605.82z"/>
			<path class="st1" d="M787.13,461.52h-86.32V321.9h86.32v19.29H720.1v40.24h54.27v19.29H720.1v41.5h67.03V461.52z"/>
			<path class="st1" d="M844.8,321.9h18.8l60.89,139.61h-11.11c-3.05,0-5.81-0.8-8.28-2.39c-2.47-1.59-4.32-3.78-5.55-6.58
				l-9.74-22.21H818.5l-9.65,22.21c-1.17,2.73-3,4.9-5.51,6.53c-2.5,1.63-5.28,2.44-8.33,2.44h-11.1L844.8,321.9z M852.4,352.69
				l-25.43,58.36h54.46l-25.43-58.36c-1.04-2.27-1.66-5.03-1.85-8.28c-0.13,1.62-0.34,3.12-0.63,4.48
				C853.23,350.25,852.85,351.52,852.4,352.69z"/>
			<path class="st1" d="M1079.21,461.52h-19.29V350.35c-0.07,0.2-0.17,0.63-0.29,1.31c-0.13,0.68-0.28,1.46-0.44,2.34
				c-0.16,0.88-0.36,1.75-0.58,2.63c-0.22,0.88-0.47,1.61-0.73,2.19l-44.82,102.69h-18.8l-44.72-102.59
				c-0.26-0.45-0.49-1.04-0.68-1.75c-0.2-0.72-0.37-1.45-0.54-2.19c-0.16-0.74-0.29-1.43-0.39-2.04c-0.1-0.62-0.15-1.09-0.15-1.41
				v110h-19.29V321.9h15.98c3.05,0,5.83,0.83,8.33,2.48s4.34,3.82,5.51,6.48l43.55,99.86c0.52,1.3,0.93,2.65,1.22,4.05
				c0.29,1.39,0.47,2.9,0.54,4.53c0.19-3.25,0.81-6.1,1.85-8.57l43.55-99.86c1.23-2.79,3.12-4.98,5.65-6.57
				c2.54-1.6,5.27-2.39,8.19-2.39h16.37V461.52z"/>
		</g>
	</g>
</g>
</svg>
