<svg width="227" height="98" viewBox="0 0 227 98" fill="none" xmlns="http://www.w3.org/2000/svg">
<path d="M50.3139 67.8348C48.9634 67.6963 47.723 67.0038 46.4276 65.8681C45.1045 64.7324 44.5257 63.3751 44.0571 61.9901C43.5886 60.605 43.3956 58.6106 43.4783 56.0068C43.561 53.403 44.2501 50.633 45.5731 47.6691C46.8961 44.7052 48.0813 42.2122 49.1563 40.2178C50.2313 38.2233 48.5224 39.553 43.9745 44.2343C39.4266 48.9156 36.6703 51.7133 35.6504 52.5997C34.6306 53.4861 32.0397 55.8683 27.8501 59.7186C23.6605 63.6244 20.3805 66.2005 17.955 67.5024C15.5294 68.8043 13.2417 69.4968 11.0918 69.6076C8.94189 69.7184 7.09516 69.3029 5.60676 68.3611C4.11836 67.4193 3.09853 66.3944 2.54727 65.2587C1.99601 64.123 1.63769 62.6826 1.49988 60.882C1.36206 59.0815 1.30693 57.6411 1.41719 56.5054C1.49988 55.3697 1.555 54.3725 1.555 53.5415C1.555 52.6828 1.88576 50.7161 2.54727 47.6137C3.20878 44.5113 4.06323 41.0211 5.08307 37.0876C6.13046 33.1542 7.23298 29.4978 8.44575 26.0907C9.65852 22.6836 10.761 18.6948 11.7809 14.1519C12.8007 9.60912 13.6276 7.0607 14.2615 6.5067C14.9506 5.9527 16.3012 5.8142 18.3684 6.0912C20.4357 6.3682 21.6209 6.7283 22.0067 7.1715C22.3651 7.61471 22.5856 8.41801 22.6407 9.60911C22.6958 10.7725 21.9792 13.2101 20.4908 16.9219C18.9748 20.6338 17.321 25.0935 15.5294 30.2734C13.7378 35.481 12.3046 40.2455 11.2572 44.5667C10.2098 48.8879 9.74121 52.4335 9.85147 55.1758C9.96172 57.9181 10.4303 59.4416 11.2572 59.7186C12.0841 59.9956 12.911 59.9956 13.7654 59.7186C14.6199 59.4416 16.6595 58.0289 19.9395 55.5082C23.192 52.9598 27.5469 49.1095 32.9768 43.9296C38.4067 38.7496 42.8995 34.0683 46.4276 29.8579C49.9556 25.6475 52.1607 23.016 53.0151 21.9357C53.8696 20.8554 54.6689 20.0798 55.4131 19.6089C56.1573 19.138 56.9015 18.861 57.6457 18.7779C58.3899 18.6948 59.2444 18.8333 60.1815 19.1934C61.1462 19.5535 61.8353 20.1075 62.3039 20.8554C62.7724 21.6033 62.7449 22.7667 62.2487 24.3179C61.7526 25.8691 60.3744 29.5255 58.1694 35.2871C55.9644 41.0488 54.3933 45.0099 53.4561 47.1428C52.519 49.3034 51.9677 51.5471 51.7748 53.9293C51.5818 56.2838 51.6645 57.9181 51.9953 58.7491C52.326 59.6078 53.1805 60.1064 54.5035 60.2726C55.8265 60.4388 57.8662 60.1064 60.5674 59.2754C63.2686 58.4444 64.1781 58.8599 63.241 60.5496C62.3039 62.2394 60.8155 63.7906 58.7482 65.1756C56.681 66.5883 53.1254 67.8625 51.7472 67.8348C51.7748 67.9179 51.196 67.9179 50.3139 67.8348Z" fill="#544DA0"/>
<path d="M65.9418 40.6058C69.7179 38.0573 72.0332 36.6169 72.8877 36.3122C73.7421 36.0075 74.4588 36.1183 75.01 36.6446C75.5889 37.1432 75.9196 37.7803 76.0299 38.5282C76.1401 39.2762 75.9196 40.9105 75.3684 43.4312C74.8171 45.9519 74.8171 46.9768 75.3684 46.5059C75.9196 46.035 76.6914 45.5641 77.7112 45.0932C78.731 44.6223 79.9989 44.1237 81.57 43.5697C83.1136 43.0157 84.5744 42.7941 85.925 42.8772C87.2756 42.9603 88.323 43.2927 89.012 43.8744C89.7011 44.4561 90.1697 44.927 90.3351 45.2871C90.528 45.6472 90.7761 46.1735 91.1068 46.866C91.4376 47.5585 91.5754 47.974 91.5754 48.1125C91.5754 48.251 91.6305 48.5834 91.7132 49.082C91.7959 49.5806 91.7683 50.3839 91.5754 51.5196C91.41 52.6553 90.9414 54.0126 90.1972 55.6192C89.453 57.2258 88.3505 58.7216 86.8621 60.1066C85.3737 61.4917 84.1058 62.4889 83.0309 63.0706C81.9835 63.68 80.8258 64.2063 79.6131 64.6772C78.4003 65.1481 77.1599 65.4805 75.8645 65.6744C74.569 65.8683 73.5492 65.6744 72.805 65.1204C72.0608 64.5664 71.6749 63.9293 71.6473 63.2368C71.6198 62.5443 71.8403 61.741 72.3089 60.8268C72.7774 59.9404 73.246 59.1371 73.7421 58.4169C74.2383 57.7244 75.0376 56.8934 76.1952 55.9239C77.3529 54.9544 78.5381 54.2065 79.7784 53.6525C81.0188 53.0985 82.011 52.7384 82.7277 52.5999C83.4443 52.4614 82.9757 52.96 81.2944 54.0957C79.6131 55.2591 78.1522 56.3671 76.9119 57.4751C75.6715 58.5831 75.2581 59.3864 75.6991 59.9127C76.1401 60.4114 76.9394 60.4667 78.1247 59.9958C79.2823 59.5526 80.9912 58.223 83.2238 56.007C85.4564 53.791 86.173 51.8797 85.3737 50.2731C84.602 48.6665 83.086 48.2787 80.8534 49.1097C78.6208 49.9407 76.6362 51.1318 74.8998 52.6553C73.1633 54.1788 71.3442 57.2812 69.4147 61.9626C67.4853 66.6439 66.245 70.0787 65.4181 72.2947C64.6188 74.5384 63.5438 77.6131 62.1932 81.5466C60.8702 85.48 59.2991 89.2749 57.5075 92.959C55.7159 96.6431 54.2827 98.2774 53.1526 97.8065C52.0225 97.3633 51.3334 96.7539 51.0853 95.9783C50.8373 95.2027 50.7546 94.3994 50.8648 93.5407C50.9751 92.682 51.3334 91.6017 51.9122 90.2998C52.5186 88.9979 53.3179 86.8373 54.3378 83.818C55.3576 80.7986 57.5075 74.9539 60.7875 66.3392C64.0675 57.6967 66.0245 52.5999 66.6309 50.9933C67.2373 49.3867 68.0366 47.0322 69.0289 43.9298C69.9936 40.8274 70.1038 39.4147 69.3045 39.664C68.5327 39.941 66.8238 40.7997 64.1778 42.2124C61.5868 43.6805 62.1657 43.1265 65.9418 40.6058Z" fill="#544DA0"/>
<path d="M96.0393 40.6058C99.8154 38.0573 102.131 36.6169 102.985 36.3122C103.84 36.0075 104.556 36.1183 105.108 36.6446C105.659 37.1709 106.017 37.7803 106.127 38.5282C106.238 39.2762 106.017 40.9105 105.466 43.4312C104.915 45.9519 104.915 46.9768 105.466 46.5059C106.017 46.035 106.789 45.5641 107.809 45.0932C108.829 44.6223 110.096 44.1237 111.668 43.5697C113.211 43.0157 114.672 42.7941 116.022 42.8772C117.373 42.9603 118.42 43.2927 119.11 43.8744C119.799 44.4561 120.267 44.927 120.433 45.2871C120.625 45.6472 120.874 46.1735 121.204 46.866C121.535 47.5585 121.673 47.974 121.673 48.1125C121.673 48.251 121.728 48.5834 121.811 49.082C121.893 49.5806 121.866 50.3839 121.673 51.5196C121.508 52.6553 121.039 54.0126 120.295 55.6192C119.551 57.2258 118.448 58.6385 116.96 60.0236C115.471 61.4086 114.203 62.4058 113.128 62.9875C112.081 63.5969 110.923 64.1232 109.711 64.5941C108.498 65.065 107.257 65.3974 105.962 65.5913C104.667 65.7852 103.647 65.5913 102.902 65.0373C102.158 64.4833 101.772 63.8462 101.745 63.1537C101.717 62.4612 101.938 61.6579 102.406 60.7438C102.875 59.8574 103.343 59.054 103.84 58.3338C104.336 57.6413 105.135 56.8103 106.293 55.8408C107.45 54.8713 108.636 54.1234 109.876 53.5694C111.116 53.0154 112.109 52.6553 112.825 52.5168C113.542 52.3783 113.073 52.8769 111.392 54.0126C109.711 55.176 108.25 56.284 107.009 57.392C105.769 58.5 105.356 59.3033 105.797 59.8297C106.238 60.3283 107.037 60.3837 108.222 59.9128C109.38 59.4695 111.089 58.1399 113.321 55.9239C115.554 53.7079 116.271 51.7966 115.471 50.19C114.699 48.5834 113.183 48.1956 110.951 49.0266C108.718 49.8576 106.734 51.0487 104.997 52.5722C103.261 54.0957 101.442 57.1981 99.5122 61.8795C97.5828 66.5608 96.2322 69.9956 95.4329 72.2393C94.6336 74.483 93.5586 77.5577 92.208 81.4911C90.885 85.4246 89.3139 89.2195 87.5223 92.9036C85.7307 96.5877 84.2974 98.222 83.1674 97.7511C82.0373 97.3079 81.3482 96.6985 81.1001 95.9229C80.8521 95.1473 80.7694 94.344 80.8796 93.4853C80.9899 92.6266 81.3482 91.5463 81.927 90.2444C82.5334 88.9425 83.3327 86.7819 84.3526 83.7626C85.3724 80.7433 87.5223 74.8985 90.8023 66.2838C94.0823 57.6413 96.0393 52.5445 96.6457 50.9379C97.2521 49.3313 98.0514 46.9768 99.0437 43.8744C100.008 40.772 100.119 39.3593 99.3193 39.6086C98.5475 39.8856 96.8386 40.7443 94.1926 42.157C91.6843 43.6805 92.2632 43.1265 96.0393 40.6058Z" fill="#544DA0"/>
<path d="M136.889 37.5586C139.728 37.337 141.464 37.8356 142.071 38.999C142.677 40.1625 142.98 41.6583 142.925 43.4865C142.87 45.287 142.043 46.8382 140.389 48.0847C138.736 49.3312 136.558 50.5777 133.829 51.8242C133.058 52.1289 132.369 52.2951 131.762 52.2951C131.156 52.3228 130.632 52.2951 130.246 52.2397C129.833 52.1843 129.53 52.1012 129.281 52.0458C129.061 51.9904 128.923 52.0181 128.868 52.1289C128.096 53.3754 127.71 54.5942 127.683 55.8407C127.655 57.0872 128.069 58.2229 128.896 59.2755C129.723 60.3281 130.632 60.9375 131.652 61.1037C132.672 61.2699 133.719 61.2422 134.822 61.0206C135.924 60.799 137.964 60.0511 140.941 58.8046C143.917 57.5581 145.985 56.3947 147.142 55.3144C148.3 54.2341 149.43 53.1815 150.477 52.1566C151.525 51.1317 151.69 51.1317 150.918 52.1566C150.147 53.1815 149.21 54.428 148.079 55.8684C146.949 57.3088 145.544 58.7492 143.89 60.1896C142.209 61.63 140.858 62.7103 139.783 63.486C138.708 64.2616 137.302 64.9541 135.538 65.5635C133.774 66.1729 132.038 66.3668 130.356 66.1452C128.648 65.9236 127.38 65.5081 126.525 64.9541C125.671 64.4001 124.899 63.7353 124.182 62.9597C123.466 62.184 122.859 61.2976 122.391 60.245C121.922 59.1924 121.674 57.7797 121.647 55.9515C121.619 54.151 122.06 52.1566 122.914 50.0237C123.796 47.8908 124.761 46.118 125.864 44.7053C126.966 43.2926 128.455 41.8799 130.356 40.4395C132.313 39.0267 134.463 38.0572 136.889 37.5586ZM136.944 43.2926C136.641 42.9879 135.924 43.1541 134.739 43.7358C133.581 44.3452 132.727 45.01 132.203 45.7579C131.679 46.5058 131.569 47.0598 131.928 47.3922C132.258 47.7246 132.975 47.5861 134.077 46.9767C135.18 46.3673 136.062 45.7302 136.724 45.1208C137.385 44.5114 137.468 43.902 136.944 43.2926Z" fill="#544DA0"/>
<path d="M152.987 46.5614C154.503 40.6336 155.991 37.725 157.397 37.8635C158.83 38.002 159.877 38.6391 160.622 39.7749C161.338 40.9383 161.256 42.351 160.401 44.0407C159.519 45.7304 159.436 46.506 160.153 46.3952C160.842 46.2844 161.779 45.8689 162.909 45.121C164.067 44.3731 165.142 43.7914 166.189 43.3205C167.237 42.8773 168.064 42.5726 168.698 42.4618C169.332 42.3233 170.544 42.5449 172.363 43.0989C174.155 43.6529 175.864 44.4285 177.49 45.4257C179.089 46.4229 181.239 46.506 183.885 45.675C186.531 44.844 186.255 45.121 183.03 46.506C179.805 47.891 176.498 48.5558 173.135 48.445C169.773 48.3619 167.154 48.7774 165.307 49.6638C163.461 50.5502 161.89 51.5474 160.622 52.6277C159.354 53.708 158.169 55.5085 157.094 58.0015C156.019 60.4945 155.192 62.5998 154.613 64.2895C154.034 66.0069 153.538 67.3919 153.097 68.4722C152.656 69.5525 151.746 70.1342 150.368 70.1896C148.99 70.245 148.08 69.7464 147.639 68.6938C147.198 67.6412 147.088 66.9487 147.309 66.6163C147.529 66.2839 148.191 64.3449 149.211 60.7716C150.23 57.1982 151.498 52.4892 152.987 46.5614Z" fill="#544DA0"/>
<path d="M193.199 19.1932C194.908 16.5063 196.314 15.426 197.444 15.9246C198.574 16.4232 199.18 17.088 199.263 17.919C199.346 18.7223 197.527 22.8773 193.75 30.3841C190.002 37.8908 187.273 44.8712 185.619 51.3254C183.938 57.7795 183.359 61.4082 183.883 62.2392C184.379 63.0425 185.316 63.2918 186.612 62.9317C187.935 62.5993 191.27 60.7434 196.672 57.3917C202.047 54.04 203.508 53.2367 204.748 52.1841C205.988 51.1315 207.063 50.5498 204.252 53.1536C201.441 55.7851 199.346 57.7241 197.913 59.026C196.479 60.3279 195.074 61.7406 193.668 63.2364C192.262 64.7599 190.553 66.0618 188.541 67.1698C186.529 68.2778 184.765 68.8872 183.249 68.998C181.733 69.1088 180.768 68.6102 179.941 67.9454C178.977 67.1421 178.481 66.505 177.929 65.0092C177.488 63.7627 177.24 61.7406 177.764 58.6382C178.288 55.5358 179.776 50.4944 182.174 43.5139C184.6 36.5335 186.612 31.3813 188.21 28.0572C189.837 24.8163 191.49 21.8524 193.199 19.1932Z" fill="#544DA0"/>
<path d="M221.26 42.5998C222.059 41.7411 223.024 41.4641 224.126 41.7688C225.229 42.0735 226 42.5444 226.469 43.2369C226.938 43.9294 227.103 44.6219 226.938 45.3421C226.8 46.0623 226.745 47.3919 226.855 49.3309C226.938 51.2699 226.772 54.0399 226.386 57.6686C225.973 61.2973 225.587 64.3167 225.201 66.7543C224.815 69.1919 223.961 71.9896 222.583 75.1751C221.232 78.3606 219.44 81.3245 217.235 84.1222C215.03 86.92 212.439 89.3576 209.435 91.4074C206.431 93.4849 203.785 95.0084 201.442 96.0056C199.099 97.0028 197.252 97.6122 195.902 97.8338C194.551 98.0554 193.228 98.0554 191.96 97.8338C190.692 97.6122 189.59 96.6981 188.653 95.0638C187.715 93.4295 188.156 91.0473 189.976 87.8895C191.795 84.7594 192.098 84.5931 190.885 87.4186C189.672 90.244 190.389 91.7952 192.98 92.1276C195.571 92.46 197.803 92.1276 199.623 91.1304C201.442 90.1609 203.564 88.6651 205.99 86.643C208.415 84.6486 210.262 82.9034 211.557 81.4353C212.853 79.9672 214.259 77.8066 215.83 74.9535C217.373 72.1004 218.558 68.8595 219.385 65.2308C220.212 61.602 220.681 58.9151 220.791 57.17C220.901 55.4249 220.929 54.4 220.846 54.123C220.791 53.846 220.378 53.9568 219.661 54.4831C218.944 54.9817 218.173 55.6742 217.401 56.5329C216.629 57.3916 215.775 58.1949 214.865 58.9982C213.955 59.7738 212.55 60.9095 210.62 62.3222C208.718 63.7627 207.12 64.4829 205.852 64.5383C204.584 64.5937 203.344 64.3444 202.131 63.8458C200.918 63.3472 200.036 62.5438 199.457 61.4912C198.878 60.4386 198.603 59.1921 198.603 57.8071C198.603 56.4221 198.713 55.4249 198.934 54.7878C199.154 54.1784 199.705 52.1286 200.642 48.6938C201.58 45.2313 202.599 43.2646 203.73 42.766C204.86 42.2674 205.742 42.0458 206.403 42.1012C207.065 42.1566 207.588 42.5167 207.974 43.2092C208.36 43.9017 208.305 44.7881 207.836 45.7853C207.368 46.8102 206.761 48.5276 206.045 50.9652C205.328 53.4028 205.025 55.2587 205.19 56.5883C205.328 57.9179 205.935 58.3611 206.982 57.9733C208.029 57.5578 208.994 57.0038 209.931 56.3113C210.868 55.6188 211.723 54.8155 212.495 53.9568C213.266 53.0704 214.727 51.1868 216.85 48.2783C219.055 45.3421 220.488 43.4585 221.26 42.5998Z" fill="#544DA0"/>
<path d="M0.838942 15.0657C1.63827 14.5671 2.41003 14.0408 3.1818 13.4868C3.56768 13.2098 3.95356 12.9328 4.31188 12.6558C4.69776 12.3788 5.08364 12.1018 5.44196 11.8248C6.18616 11.2431 6.93037 10.6891 7.67457 10.1074C8.41877 9.52572 9.13541 8.94402 9.87961 8.33462L10.9546 7.42051C11.3129 7.11581 11.6712 6.81111 12.0295 6.50641C12.3878 6.2017 12.7462 5.897 13.1045 5.5646C13.4628 5.2599 13.8211 4.9275 14.1519 4.6228C14.8409 3.98569 15.53 3.34859 16.2191 2.68379L18.2588 0.689379C19.2235 -0.252425 20.7946 -0.224725 21.7317 0.74478L21.7593 0.77248L22.3105 1.35418C23.6887 2.82229 25.1219 4.2904 26.5001 5.8693C27.1892 6.67261 27.8507 7.50361 28.4571 8.36232C28.7603 8.80552 29.0635 9.24872 29.3666 9.69192C29.6698 10.1628 29.9455 10.606 30.2211 11.1046C30.7724 12.0741 31.2961 13.0436 31.7095 14.1239C31.93 14.6502 32.123 15.2042 32.2608 15.7582C32.4261 16.3123 32.564 16.894 32.6466 17.4757C32.7569 18.0574 32.812 18.6668 32.8396 19.2485C32.8672 19.5532 32.8672 19.8579 32.8396 20.1626C32.8396 20.4673 32.812 20.772 32.7845 21.0767C32.7293 21.6861 32.6191 22.2955 32.4813 22.8772C32.3986 23.1819 32.3159 23.4589 32.2056 23.7636C32.0954 24.0683 31.9576 24.3453 31.8198 24.6223C31.2961 25.5918 30.1109 25.9519 29.1461 25.4256C28.8705 25.2871 28.65 25.0655 28.4846 24.8439L28.3193 24.6223C28.1539 24.4007 28.0161 24.1791 27.9058 23.9575C27.768 23.7359 27.6577 23.542 27.5199 23.3204C27.4097 23.1265 27.2719 22.9049 27.1616 22.711C27.0238 22.5171 26.9135 22.3232 26.8033 22.1293L26.6379 21.8523C26.5828 21.7415 26.5277 21.6584 26.4725 21.5753L26.3072 21.2983C26.252 21.2152 26.1969 21.1044 26.1418 21.0213L25.5354 19.8579C25.0944 19.11 24.6809 18.3344 24.2675 17.5588C24.0746 17.171 23.854 16.7832 23.6611 16.3677C23.4682 15.9522 23.2477 15.5643 23.0272 15.1488C22.8067 14.7333 22.6137 14.3178 22.3656 13.93C22.1451 13.5145 21.9246 13.099 21.7041 12.6835L21.0426 11.3816C20.8221 10.9384 20.5741 10.5229 20.3535 10.0797C19.885 9.19332 19.444 8.30692 18.9754 7.39281L17.5972 4.6505L21.649 5.3153L19.1683 6.70031C18.3414 7.17121 17.5421 7.64211 16.7152 8.14071C16.3018 8.39002 15.9159 8.63932 15.5025 8.88862C15.089 9.13792 14.7031 9.38722 14.3172 9.63652C13.9314 9.88582 13.5179 10.1351 13.132 10.4121L11.9468 11.1877C11.1751 11.714 10.3757 12.2403 9.63154 12.7666C8.85977 13.2929 8.11557 13.8469 7.34381 14.4009C6.95793 14.6779 6.59961 14.9549 6.21373 15.2319C5.82785 15.509 5.46953 15.786 5.08364 16.0907C4.33944 16.6724 3.62281 17.2541 2.90617 17.8635C2.16197 18.5006 1.05945 18.4175 0.425497 17.6696C-0.208452 16.9217 -0.125763 15.8137 0.618438 15.1765C0.701127 15.1488 0.756253 15.0934 0.838942 15.0657Z" fill="#544DA0"/>
</svg>
